<svg width="83" height="83" viewBox="0 0 83 83" fill="none" xmlns="http://www.w3.org/2000/svg">
<path d="M60 54.3703L60 26L22 33.9057L22 73.0943L60 81V52.6297" stroke="white" stroke-width="3"/>
<circle cx="41" cy="51" r="12.6" stroke="white" stroke-width="2.8"/>
<circle cx="8" cy="53" r="6.5" stroke="white" stroke-width="3"/>
<path d="M22 53H15" stroke="white" stroke-width="3"/>
<path d="M37 83L37 70" stroke="white" stroke-width="3"/>
<path d="M45 83L45 70" stroke="white" stroke-width="3"/>
<circle cx="8" cy="8" r="6.5" transform="matrix(-1 0 0 1 83 24)" stroke="white" stroke-width="3"/>
<path d="M61 32H68" stroke="white" stroke-width="3"/>
<circle cx="8" cy="8" r="6.5" transform="matrix(-1 0 0 1 83 67)" stroke="white" stroke-width="3"/>
<path d="M61 75H68" stroke="white" stroke-width="3"/>
<circle cx="8" cy="8" r="6.5" transform="matrix(-1 0 0 1 83 45)" stroke="white" stroke-width="3"/>
<path d="M61 53H68" stroke="white" stroke-width="3"/>
<path d="M13.6168 11.6133H10.2693L4.96229 7.33729H3.30215V5.42548H4.96229L10.2693 1.14945H13.6168L6.93088 6.38139L13.6168 11.6133ZM2.35868 11.6133H0V1.14945H2.35868V11.6133Z" fill="white"/>
<path d="M27.5584 7.33729H20.1104V5.42548H27.5584V7.33729ZM28.6198 11.6133H20.1104C19.7839 11.6133 19.427 11.5671 19.04 11.4747C18.6529 11.3822 18.293 11.2314 17.9604 11.0223C17.6338 10.8082 17.3586 10.5334 17.1349 10.1977C16.9172 9.85718 16.8083 9.44125 16.8083 8.94992V2.10536C16.8083 1.97401 16.8385 1.84996 16.899 1.73321C16.9595 1.61646 17.0411 1.5143 17.1439 1.42674C17.2528 1.33917 17.3798 1.27107 17.525 1.22242C17.6701 1.17378 17.8274 1.14945 17.9967 1.14945H28.6198V3.04667H19.167V8.94992C19.167 9.19802 19.2486 9.38774 19.4119 9.51909C19.5752 9.65043 19.8141 9.7161 20.1286 9.7161H28.6198V11.6133Z" fill="white"/>
<path d="M47.9047 11.6133H45.5279V5.3817L41.3458 11.2995C41.243 11.4504 41.0978 11.5647 40.9103 11.6425C40.7289 11.7203 40.5323 11.7593 40.3207 11.7593C40.115 11.7593 39.9215 11.7203 39.7401 11.6425C39.5647 11.5647 39.4256 11.4504 39.3228 11.2995L35.1225 5.3817V11.6133H32.7638V1.95942C32.7638 1.74051 32.8424 1.54592 32.9997 1.37566C33.163 1.2054 33.3747 1.09108 33.6347 1.0327C33.7617 1.00838 33.8887 1.00108 34.0157 1.01081C34.1427 1.01567 34.2637 1.03757 34.3786 1.07648C34.4996 1.11054 34.6084 1.16161 34.7052 1.22972C34.802 1.29296 34.8836 1.37079 34.9501 1.46322L40.3207 8.97181L45.6912 1.46322C45.8303 1.27837 46.0208 1.14702 46.2627 1.06919C46.5107 0.991352 46.7677 0.97919 47.0338 1.0327C47.2878 1.09108 47.4965 1.2054 47.6598 1.37566C47.8231 1.54592 47.9047 1.74051 47.9047 1.95942V11.6133Z" fill="white"/>
<path d="M65.2573 10.6574C65.2573 10.7936 65.2271 10.9201 65.1666 11.0369C65.1061 11.1536 65.0214 11.2558 64.9126 11.3433C64.8037 11.426 64.6767 11.4917 64.5316 11.5403C64.3864 11.589 64.2322 11.6133 64.0689 11.6133H58.7528C58.2508 11.6133 57.7428 11.5695 57.2287 11.482C56.7147 11.3944 56.2157 11.2606 55.7319 11.0806C55.2541 10.8958 54.8035 10.6623 54.3802 10.3801C53.9568 10.098 53.5849 9.76475 53.2643 9.38044C52.9499 8.99127 52.7019 8.54859 52.5205 8.05239C52.339 7.55133 52.2483 6.99433 52.2483 6.38139V1.14945H54.607V6.38139C54.607 6.9165 54.6977 7.36891 54.8791 7.73862C55.0666 8.10834 55.3025 8.41724 55.5867 8.66534C55.871 8.91344 56.1825 9.10802 56.5211 9.2491C56.8598 9.39017 57.1804 9.49476 57.4828 9.56287C57.7912 9.63097 58.0603 9.67475 58.2901 9.69421C58.526 9.70881 58.6802 9.7161 58.7528 9.7161H62.8986V1.14945H65.2573V10.6574Z" fill="white"/>
<path d="M75.806 4.88551L79.7795 1.14945H83L77.4027 6.39598L82.9637 11.6133H79.7614L75.806 7.90645L71.8689 11.6133H68.6574L74.2094 6.39598L68.6393 1.14945H71.8326L75.806 4.88551Z" fill="white"/>
</svg>
